<svg width="22" height="16" viewBox="0 0 22 16" fill="none" xmlns="http://www.w3.org/2000/svg">
<path id="Vector" d="M4.6326 14.9978C4.26787 14.9984 3.90468 14.9505 3.5526 14.8553C2.49578 14.5539 1.59917 13.8503 1.05515 12.8955C0.511122 11.9406 0.363014 10.8106 0.642599 9.74777L2.3901 3.11777C2.52799 2.58391 2.77076 2.08284 3.10426 1.64376C3.43776 1.20467 3.85532 0.836355 4.3326 0.560272C4.79882 0.290234 5.31399 0.115391 5.84827 0.0458708C6.38254 -0.0236492 6.9253 0.013536 7.4451 0.155272C7.99632 0.307008 8.51014 0.57127 8.95418 0.931406C9.39822 1.29154 9.76285 1.73974 10.0251 2.24777H11.9751C12.2346 1.73614 12.5982 1.28437 13.0424 0.921446C13.4867 0.55852 14.002 0.292442 14.5551 0.140272C15.0749 -0.0014643 15.6177 -0.0386489 16.1519 0.0308712C16.6862 0.100391 17.2014 0.275234 17.6676 0.545272C18.1446 0.821683 18.562 1.1901 18.8954 1.62914C19.2289 2.06817 19.4718 2.56908 19.6101 3.10277L21.3576 9.74777C21.6414 10.8137 21.4944 11.9484 20.9485 12.9069C20.4027 13.8653 19.5016 14.5706 18.4401 14.8703C17.9203 15.012 17.3775 15.0492 16.8433 14.9797C16.309 14.9102 15.7938 14.7353 15.3276 14.4653C14.8503 14.1892 14.4328 13.8209 14.0993 13.3818C13.7658 12.9427 13.523 12.4416 13.3851 11.9078L13.2501 11.2478H8.7501L8.5776 11.8928C8.43971 12.4266 8.19694 12.9277 7.86344 13.3668C7.52994 13.8059 7.11238 14.1742 6.6351 14.4503C6.02571 14.8017 5.33605 14.9903 4.6326 14.9978ZM6.3726 1.49777C5.92 1.49931 5.47554 1.61818 5.0826 1.84277C4.77712 2.02105 4.50988 2.25794 4.29623 2.53981C4.08257 2.82168 3.92671 3.14299 3.8376 3.48527L2.0901 10.1153C1.90724 10.7983 1.99964 11.5259 2.34744 12.1415C2.69524 12.7572 3.27068 13.2118 3.9501 13.4078C4.27823 13.4973 4.62085 13.5208 4.95814 13.4771C5.29542 13.4333 5.62069 13.3231 5.9151 13.1528C6.22084 12.9748 6.48828 12.738 6.70197 12.4561C6.91566 12.1742 7.07137 11.8527 7.1601 11.5103L7.6251 9.74777H14.3751L14.8326 11.5103C15.0141 12.2009 15.4617 12.7914 16.0776 13.1528C16.3735 13.3229 16.7 13.433 17.0385 13.4767C17.3769 13.5205 17.7207 13.4971 18.0501 13.4078C18.7303 13.2137 19.3065 12.7589 19.6534 12.1424C20.0002 11.5259 20.0898 10.7974 19.9026 10.1153L18.1551 3.48527C18.0688 3.14279 17.9149 2.82104 17.7023 2.53896C17.4898 2.25687 17.223 2.02017 16.9176 1.84277C16.6217 1.67265 16.2952 1.56255 15.9567 1.5188C15.6183 1.47504 15.2745 1.49848 14.9451 1.58777C14.5377 1.70389 14.164 1.91553 13.8548 2.20511C13.5457 2.4947 13.3101 2.85386 13.1676 3.25277L12.9876 3.74777H9.0126L8.8326 3.25277C8.68886 2.85333 8.45195 2.49391 8.14151 2.20434C7.83108 1.91478 7.45607 1.70341 7.0476 1.58777C6.8275 1.52842 6.60056 1.49817 6.3726 1.49777Z" fill="#650C01"/>
</svg>
