<svg width="16" height="14" viewBox="0 0 16 14" fill="none" xmlns="http://www.w3.org/2000/svg">
<path id="Vector" d="M8.4794 0.175102C8.9274 -0.217355 9.63975 0.0928059 9.63975 0.680132V13.3195C9.63975 13.9072 8.9274 14.2174 8.4794 13.8249L5.21739 10.9655C4.87094 10.6617 4.42173 10.4936 3.95607 10.4935H2.08696C1.53346 10.4935 1.00264 10.2788 0.611255 9.89658C0.219875 9.51439 0 8.99602 0 8.45551V5.54411C0 4.41837 0.934161 3.50613 2.08696 3.50613H3.95607C4.42173 3.50605 4.87094 3.33794 5.21739 3.0341L8.4794 0.175102ZM8.64596 1.33306L5.88124 3.7569C5.35233 4.22038 4.66671 4.47669 3.95607 4.4766H2.08696C1.79703 4.4766 1.51898 4.58907 1.31397 4.78927C1.10896 4.98946 0.993789 5.26099 0.993789 5.54411V8.45551C0.993789 8.73863 1.10896 9.01016 1.31397 9.21036C1.51898 9.41056 1.79703 9.52303 2.08696 9.52303H3.95607C4.66677 9.52304 5.35239 9.77949 5.88124 10.2431L8.64596 12.6673V1.33306ZM12.9542 0.942547C13.0443 0.848707 13.1688 0.793624 13.3005 0.789402C13.4321 0.78518 13.5601 0.832165 13.6562 0.920032L13.6606 0.923913L13.6682 0.930901C13.704 0.964402 13.7387 0.998967 13.7723 1.03455C13.8399 1.10442 13.9329 1.20574 14.0434 1.3385C14.3454 1.70339 14.6136 2.09376 14.8448 2.505C15.4248 3.52903 16 5.04063 16 6.99981C16 8.95899 15.4248 10.4702 14.8448 11.495C14.6136 11.9061 14.3454 12.2963 14.0434 12.6611C13.9322 12.7947 13.8148 12.9232 13.6916 13.0462C13.6837 13.0538 13.6758 13.0613 13.6678 13.0687L13.6606 13.0757L13.6582 13.078L13.657 13.0788L13.7445 12.9938C13.787 12.9523 13.8013 12.9379 13.6562 13.0792C13.5594 13.1625 13.4331 13.2058 13.3042 13.1998C13.1753 13.1938 13.0538 13.1391 12.9655 13.0472C12.8772 12.9553 12.8289 12.8334 12.831 12.7074C12.833 12.5813 12.8852 12.461 12.9765 12.3719L12.9781 12.3704C13.0024 12.3473 13.0261 12.3236 13.0492 12.2993C13.1013 12.245 13.1788 12.1615 13.273 12.0482C13.5376 11.7282 13.7725 11.3859 13.9751 11.0253C14.4886 10.1185 15.0062 8.76723 15.0062 6.99981C15.0062 5.2324 14.4886 3.88112 13.9751 2.97432C13.7725 2.61362 13.5376 2.27119 13.273 1.95106C13.1837 1.84377 13.0895 1.74041 12.9908 1.64128C12.9866 1.63712 12.9823 1.63298 12.9781 1.62886L12.9769 1.6277L12.9761 1.62692C12.8804 1.53884 12.8244 1.4173 12.8203 1.28895C12.8162 1.1606 12.8644 1.03628 12.9542 0.942547ZM11.3626 3.27322C11.407 3.22651 11.4604 3.18881 11.5197 3.16226C11.5791 3.13571 11.6432 3.12084 11.7084 3.11849C11.7737 3.11615 11.8387 3.12638 11.8999 3.1486C11.9611 3.17082 12.0172 3.20459 12.065 3.24799L12.0654 3.24838L12.0662 3.24915L12.0682 3.25109L12.0737 3.25575L12.0904 3.27167C12.1722 3.35171 12.2505 3.43512 12.325 3.52166C12.4701 3.69091 12.6613 3.9378 12.8517 4.2565C13.3512 5.08844 13.6147 6.03538 13.6149 6.99981C13.6149 8.1733 13.2321 9.10611 12.8517 9.74352C12.6609 10.0618 12.4701 10.3091 12.3246 10.4784C12.2501 10.5649 12.1718 10.6483 12.09 10.7283L12.0825 10.7357L12.0737 10.7439L12.0682 10.7489L12.0662 10.7509L12.0654 10.752H12.0646C11.9678 10.8375 11.8405 10.8825 11.7101 10.8771C11.5798 10.8717 11.4568 10.8164 11.3678 10.7233C11.2788 10.6301 11.2309 10.5064 11.2344 10.379C11.238 10.2516 11.2927 10.1307 11.3868 10.0424L11.3876 10.0416L11.394 10.0354C11.4007 10.0288 11.4123 10.018 11.4278 10.002C11.4588 9.9706 11.5057 9.92092 11.5629 9.85415C11.6782 9.71984 11.8352 9.51798 11.9926 9.2544C12.4038 8.57086 12.6208 7.79256 12.6211 6.99981C12.6211 6.03827 12.3083 5.27277 11.993 4.74561C11.8356 4.48165 11.679 4.27979 11.5637 4.14586C11.5098 4.08322 11.4533 4.02275 11.3944 3.96458L11.3876 3.95798L11.388 3.95837C11.2917 3.87075 11.235 3.74939 11.2302 3.62093C11.2254 3.49248 11.273 3.36742 11.3626 3.27322ZM13.6606 0.923913L13.6562 0.920032L13.657 0.920808L13.6582 0.921584L13.6606 0.923913ZM12.065 3.2476L12.0904 3.27167C12.0812 3.26449 12.0726 3.25643 12.065 3.2476Z" fill="white"/>
</svg>
